<svg id="Capa_1" enable-background="new 0 0 512 512" height="512" viewBox="0 0 512 512" width="512" xmlns="http://www.w3.org/2000/svg"><g><path d="m343.143 392.455c-.004.002-.009.004-.013.005 43.282 46.615 122.189 16.111 122.189-48.077 0-38.943-31.65-70.625-70.553-70.625-61.708 0-93.32 73.859-51.623 118.697z"/><path d="m63.13 392.46c43.173 46.486 122.189 16.37 122.189-48.077 0-38.943-31.65-70.625-70.553-70.625-61.708 0-93.32 73.859-51.622 118.696-.005.003-.01.004-.014.006z"/><path d="m193.45 406.97c-40.009 50.271-115.706 50.753-156.39 1.21-22.02 18.35-36.06 45.97-36.06 76.82v27h230v-27c0-31.54-14.67-59.71-37.55-78.03z"/><path d="m473.45 406.97c-40.008 50.271-115.706 50.753-156.39 1.21-22.02 18.35-36.06 45.97-36.06 76.82v27h230v-27c0-31.54-14.67-59.71-37.55-78.03z"/><path d="m184 263.01 39.21-49.01h65.58l39.21 49.01 39.21-49.01h55.79v-214h-334v214h55.79zm40.75-171.19 19.78 14.22 31.26-43.76 24.41 17.44-48.74 68.24-44.22-31.78z"/></g></svg>